<svg width="650" height="478" viewBox="0 0 650 478" class="keymap" xmlns="http://www.w3.org/2000/svg" xmlns:xlink="http://www.w3.org/1999/xlink">
<style>svg path { fill: inherit; }

svg.keymap {
    --color-bg:      #7c6f64;
    --color-key:     #fbf1c7;
    --color-text:    #3c3836;
    --color-ghost:   #928374;
    --color-dendron: #d5c4a1;
    --color-held:    #bdae93;

    --color-fn:      #458588;
    --color-nav:     #d79921;
    --color-num:     #d65d0e;
    --color-sys:     #689d6a;

    fill: var(--color-text);
    background-color: var(--color-bg);
    font-family: Calibri, system-ui, sans-serif;
    font-size: 16px;
    font-kerning: normal;
    text-rendering: optimizeLegibility;
}

text {
    text-anchor: middle;
    dominant-baseline: middle;
    letter-spacing: 0.02em;
}

text.tap     { font-weight: 500; }
text.hold    { font-weight: 400; font-size: 13px; }
text.shifted { font-weight: 400; font-size: 11px; }
text.combo, text.left, text.right, text.tl, text.tr, text.bl, text.br { font-size: 10px; }

text.hold, text.bl, text.br    { text-anchor: middle; dominant-baseline: auto; }
text.shifted, text.tl, text.tr { text-anchor: middle; dominant-baseline: hanging; }
text.left, text.tl, text.bl    { text-anchor: start; }
text.right, text.tr, text.br   { text-anchor: end; }

text.layer-activator { text-decoration: underline; }
text.combo.hold, text.combo.shifted, text.combo.left, text.combo.right { font-size: 8px; }

text.label, text.footer {
    fill: var(--color-key);
    stroke: var(--color-bg);
    stroke-width: 4;
    paint-order: stroke;
}
text.label  { font-weight: bold; text-anchor: start; }
text.footer { text-anchor: end; dominant-baseline: auto; }

rect.key, rect.combo, rect.combo-separate { fill: var(--color-key); stroke-width: 0; }
rect.held, rect.combo.held                { fill: var(--color-held); }
.layer-Combos rect.key                    { fill: var(--color-ghost); }

path.combo { stroke: var(--color-dendron); stroke-width: 2; stroke-dasharray: 2, 3; opacity: 0.45; fill: none; }

text.tl, use.tl { fill: var(--color-fn); }
text.tr, use.tr { fill: var(--color-nav); }
text.bl, use.bl { fill: var(--color-num); }
text.br, use.br { fill: var(--color-sys); }

.keypos-30 text.hold { fill: var(--color-nav); }
.keypos-31 text.hold { fill: var(--color-fn); }
.keypos-32 text.hold { fill: var(--color-num); font-size: 15px; }
.keypos-32 text.tap  { fill: var(--color-num); }
.keypos-33 text.hold { font-size: 15px; }

.icon-tabler > path                             { fill: inherit; stroke: inherit; stroke-width: 2; }
.icon-tabler > path[stroke="none"][fill="none"] { visibility: hidden; }

@media (prefers-color-scheme: dark) {
    svg.keymap {
        --color-bg:      #a89984;
        --color-key:     #282828;
        --color-text:    #ebdbb2;
        --color-ghost:   #928374;
        --color-dendron: #504945;
        --color-held:    #665c54;

        --color-fn:      #458588;
        --color-nav:     #fabd2f;
        --color-num:     #d65d0e;
        --color-sys:     #689d6a;
    }
}
</style>
<g transform="translate(10, 0)" class="layer-Base">
<g transform="translate(0, 10)">
<g transform="translate(30, 28)" class="key keypos-0">
<rect rx="6" ry="6" x="-28" y="-26" width="56" height="52" class="key"/>
<text x="0" y="1" class="key tap">Q</text>
<text x="-24" y="-22" class="key tl"><tspan style="font-size: 64%">&amp;dm DM_SLO…</tspan></text>
<text x="24" y="-22" class="key tr">F12</text>
<text x="24" y="22" class="key br"><tspan style="font-size: 78%">&amp;as GRAVE</tspan></text>
</g>
<g transform="translate(90, 28)" class="key keypos-1">
<rect rx="6" ry="6" x="-28" y="-26" width="56" height="52" class="key"/>
<text x="0" y="1" class="key tap">D</text>
<text x="-24" y="-22" class="key tl"><tspan style="font-size: 64%">&amp;dm DM_SLO…</tspan></text>
<text x="24" y="-22" class="key tr">F7</text>
<text x="24" y="22" class="key br">&amp;as N7</text>
</g>
<g transform="translate(150, 28)" class="key keypos-2">
<rect rx="6" ry="6" x="-28" y="-26" width="56" height="52" class="key"/>
<text x="0" y="1" class="key tap">R</text>
<text x="-24" y="-22" class="key tl"><tspan style="font-size: 64%">&amp;dm DM_SLO…</tspan></text>
<text x="24" y="-22" class="key tr">F8</text>
<text x="24" y="22" class="key br">&amp;as N8</text>
</g>
<g transform="translate(210, 28)" class="key keypos-3">
<rect rx="6" ry="6" x="-28" y="-26" width="56" height="52" class="key"/>
<text x="0" y="1" class="key tap">W</text>
<text x="-24" y="-22" class="key tl"><tspan style="font-size: 64%">&amp;dm DM_SLO…</tspan></text>
<text x="24" y="-22" class="key tr">F9</text>
<text x="24" y="22" class="key br">&amp;as N9</text>
</g>
<g transform="translate(270, 28)" class="key keypos-4">
<rect rx="6" ry="6" x="-28" y="-26" width="56" height="52" class="key"/>
<text x="0" y="1" class="key tap">B</text>
</g>
<g transform="translate(360, 28)" class="key keypos-5">
<rect rx="6" ry="6" x="-28" y="-26" width="56" height="52" class="key"/>
<text x="0" y="1" class="key tap">J</text>
</g>
<g transform="translate(420, 28)" class="key keypos-6">
<rect rx="6" ry="6" x="-28" y="-26" width="56" height="52" class="key"/>
<text x="0" y="1" class="key tap">F</text>
<text x="-24" y="-22" class="key tl"><tspan style="font-size: 64%">&amp;dm DM_SLO…</tspan></text>
<text x="24" y="-22" class="key tr"><tspan style="font-size: 78%">SCROLL UP</tspan></text>
</g>
<g transform="translate(480, 28)" class="key keypos-7">
<rect rx="6" ry="6" x="-28" y="-26" width="56" height="52" class="key"/>
<text x="0" y="1" class="key tap">U</text>
<text x="-24" y="-22" class="key tl"><tspan style="font-size: 64%">&amp;dm DM_SLO…</tspan></text>
<text x="24" y="-22" class="key tr">PAGE UP</text>
<text x="-24" y="22" class="key bl">PAGE UP</text>
</g>
<g transform="translate(540, 28)" class="key keypos-8">
<rect rx="6" ry="6" x="-28" y="-26" width="56" height="52" class="key"/>
<text x="0" y="1" class="key tap">P</text>
<text x="-24" y="-22" class="key tl"><tspan style="font-size: 64%">&amp;dm DM_SLO…</tspan></text>
<text x="24" y="-22" class="key tr"><tspan style="font-size: 78%">PAGE DOWN</tspan></text>
<text x="-24" y="22" class="key bl">PgDn</text>
<text x="24" y="22" class="key br"><tspan style="font-size: 78%">&amp;as MINUS</tspan></text>
</g>
<g transform="translate(600, 28)" class="key keypos-9">
<rect rx="6" ry="6" x="-28" y="-26" width="56" height="52" class="key"/>
<text x="0" y="1" class="key tap">
<tspan x="0" dy="-0.6em">&amp;as</tspan><tspan x="0" dy="1.2em">SEMI</tspan>
</text>
<text x="-24" y="-22" class="key tl"><tspan style="font-size: 64%">&amp;dm DM_SLO…</tspan></text>
<text x="24" y="-22" class="key tr">End</text>
</g>
<g transform="translate(30, 84)" class="key keypos-10">
<rect rx="6" ry="6" x="-28" y="-26" width="56" height="52" class="key"/>
<text x="0" y="1" class="key tap">A</text>
<text x="0" y="22" class="key hold">Gui</text>
<text x="-24" y="-22" class="key tl"><tspan style="font-size: 64%">&amp;dm DM_SLO…</tspan></text>
<text x="24" y="-22" class="key tr">F10</text>
<text x="24" y="22" class="key br">0</text>
</g>
<g transform="translate(90, 84)" class="key keypos-11">
<rect rx="6" ry="6" x="-28" y="-26" width="56" height="52" class="key"/>
<text x="0" y="1" class="key tap">S</text>
<text x="0" y="22" class="key hold">Alt</text>
<text x="-24" y="-22" class="key tl"><tspan style="font-size: 64%">&amp;dm DM_SLO…</tspan></text>
<text x="24" y="-22" class="key tr">F1</text>
<text x="24" y="22" class="key br">&amp;as N1</text>
</g>
<g transform="translate(150, 84)" class="key keypos-12">
<rect rx="6" ry="6" x="-28" y="-26" width="56" height="52" class="key"/>
<text x="0" y="1" class="key tap">H</text>
<text x="0" y="22" class="key hold">Shift</text>
<text x="-24" y="-22" class="key tl"><tspan style="font-size: 64%">&amp;dm DM_SLO…</tspan></text>
<text x="24" y="-22" class="key tr">F2</text>
<text x="24" y="22" class="key br">&amp;as N2</text>
</g>
<g transform="translate(210, 84)" class="key keypos-13">
<rect rx="6" ry="6" x="-28" y="-26" width="56" height="52" class="key"/>
<text x="0" y="1" class="key tap">T</text>
<text x="0" y="22" class="key hold">Ctrl</text>
<text x="-24" y="-22" class="key tl"><tspan style="font-size: 64%">&amp;dm DM_SLO…</tspan></text>
<text x="24" y="-22" class="key tr">F3</text>
<text x="24" y="22" class="key br">&amp;as N3</text>
</g>
<g transform="translate(270, 84)" class="key keypos-14">
<rect rx="6" ry="6" x="-28" y="-26" width="56" height="52" class="key"/>
<text x="0" y="1" class="key tap">G</text>
</g>
<g transform="translate(360, 84)" class="key keypos-15">
<rect rx="6" ry="6" x="-28" y="-26" width="56" height="52" class="key"/>
<text x="0" y="1" class="key tap">Y</text>
<text x="24" y="-22" class="key tr"><tspan style="font-size: 64%">SCROLL DOWN</tspan></text>
</g>
<g transform="translate(420, 84)" class="key keypos-16">
<rect rx="6" ry="6" x="-28" y="-26" width="56" height="52" class="key"/>
<text x="0" y="1" class="key tap">N</text>
<text x="0" y="22" class="key hold">Ctrl</text>
<text x="-24" y="-22" class="key tl"><tspan style="font-size: 64%">&amp;dm DM_SLO…</tspan></text>
<text x="24" y="-22" class="key tr">←</text>
<text x="-24" y="22" class="key bl">Mouse ←</text>
<text x="24" y="22" class="key br">(</text>
</g>
<g transform="translate(480, 84)" class="key keypos-17">
<rect rx="6" ry="6" x="-28" y="-26" width="56" height="52" class="key"/>
<text x="0" y="1" class="key tap">E</text>
<text x="0" y="22" class="key hold">Shift</text>
<text x="-24" y="-22" class="key tl"><tspan style="font-size: 64%">&amp;dm DM_SLO…</tspan></text>
<text x="24" y="-22" class="key tr">↑</text>
<text x="-24" y="22" class="key bl">Mouse ↑</text>
<text x="24" y="22" class="key br">{</text>
</g>
<g transform="translate(540, 84)" class="key keypos-18">
<rect rx="6" ry="6" x="-28" y="-26" width="56" height="52" class="key"/>
<text x="0" y="1" class="key tap">O</text>
<text x="0" y="22" class="key hold">Alt</text>
<text x="-24" y="-22" class="key tl"><tspan style="font-size: 64%">&amp;dm DM_SLO…</tspan></text>
<text x="24" y="-22" class="key tr">↓</text>
<text x="-24" y="22" class="key bl">Mouse ↓</text>
<text x="24" y="22" class="key br">{ [</text>
</g>
<g transform="translate(600, 84)" class="key keypos-19">
<rect rx="6" ry="6" x="-28" y="-26" width="56" height="52" class="key"/>
<text x="0" y="1" class="key tap">I</text>
<text x="0" y="22" class="key hold">Gui</text>
<text x="-24" y="-22" class="key tl"><tspan style="font-size: 64%">&amp;dm DM_SLO…</tspan></text>
<text x="24" y="-22" class="key tr">→</text>
<text x="-24" y="22" class="key bl">Mouse →</text>
<text x="24" y="22" class="key br"><tspan style="font-size: 78%">&amp;as EQUAL</tspan></text>
</g>
<g transform="translate(30, 140)" class="key keypos-20">
<rect rx="6" ry="6" x="-28" y="-26" width="56" height="52" class="key"/>
<text x="0" y="1" class="key tap">Z</text>
<text x="24" y="-22" class="key tr">F11</text>
<text x="24" y="22" class="key br"><tspan style="font-size: 78%">Sft+Gui+S</tspan></text>
</g>
<g transform="translate(90, 140)" class="key keypos-21">
<rect rx="6" ry="6" x="-28" y="-26" width="56" height="52" class="key"/>
<text x="0" y="1" class="key tap">X</text>
<text x="24" y="-22" class="key tr">F4</text>
<text x="24" y="22" class="key br">&amp;as N4</text>
</g>
<g transform="translate(150, 140)" class="key keypos-22">
<rect rx="6" ry="6" x="-28" y="-26" width="56" height="52" class="key"/>
<text x="0" y="1" class="key tap">M</text>
<text x="24" y="-22" class="key tr">F5</text>
<text x="24" y="22" class="key br">&amp;as N5</text>
</g>
<g transform="translate(210, 140)" class="key keypos-23">
<rect rx="6" ry="6" x="-28" y="-26" width="56" height="52" class="key"/>
<text x="0" y="1" class="key tap">C</text>
<text x="24" y="-22" class="key tr">F6</text>
<text x="24" y="22" class="key br">&amp;as N6</text>
</g>
<g transform="translate(270, 140)" class="key keypos-24">
<rect rx="6" ry="6" x="-28" y="-26" width="56" height="52" class="key"/>
<text x="0" y="1" class="key tap">V</text>
<text x="-24" y="-22" class="key tl"><tspan style="font-size: 70%">&amp;dm DM_MOV</tspan></text>
</g>
<g transform="translate(360, 140)" class="key keypos-25">
<rect rx="6" ry="6" x="-28" y="-26" width="56" height="52" class="key"/>
<text x="0" y="1" class="key tap">K</text>
</g>
<g transform="translate(420, 140)" class="key keypos-26">
<rect rx="6" ry="6" x="-28" y="-26" width="56" height="52" class="key"/>
<text x="0" y="1" class="key tap">L</text>
<text x="24" y="-22" class="key tr"><tspan style="font-size: 78%">Ctl+Gui+←</tspan></text>
<text x="-24" y="22" class="key bl"><tspan style="font-size: 70%">Left Click</tspan></text>
<text x="24" y="22" class="key br">)</text>
</g>
<g transform="translate(480, 140)" class="key keypos-27">
<rect rx="6" ry="6" x="-28" y="-26" width="56" height="52" class="key"/>
<text x="0" y="1" class="key tap">
<tspan x="0" dy="-0.6em">&amp;as</tspan><tspan x="0" dy="1.2em">COMMA</tspan>
</text>
<text x="24" y="-22" class="key tr"><tspan style="font-size: 78%">Ctl+Gui+→</tspan></text>
<text x="-24" y="22" class="key bl"><tspan style="font-size: 64%">Middle Cli…</tspan></text>
<text x="24" y="22" class="key br">}</text>
</g>
<g transform="translate(540, 140)" class="key keypos-28">
<rect rx="6" ry="6" x="-28" y="-26" width="56" height="52" class="key"/>
<text x="0" y="1" class="key tap">
<tspan x="0" dy="-0.6em">&amp;as</tspan><tspan x="0" dy="1.2em">DOT</tspan>
</text>
<text x="24" y="-22" class="key tr"><tspan style="font-size: 78%">Sft+Gui+←</tspan></text>
<text x="-24" y="22" class="key bl"><tspan style="font-size: 64%">Right Click</tspan></text>
<text x="24" y="22" class="key br">} ]</text>
</g>
<g transform="translate(600, 140)" class="key keypos-29">
<rect rx="6" ry="6" x="-28" y="-26" width="56" height="52" class="key"/>
<text x="0" y="1" class="key tap">
<tspan x="0" dy="-0.6em">&amp;as</tspan><tspan x="0" dy="1.2em">FSLH</tspan>
</text>
<text x="24" y="-22" class="key tr"><tspan style="font-size: 78%">Sft+Gui+→</tspan></text>
</g>
<g transform="translate(150, 196)" class="key keypos-30">
<rect rx="6" ry="6" x="-28" y="-26" width="56" height="52" class="key"/>
<text x="0" y="1" class="key tap">Smart</text>
<text x="0" y="22" class="key hold">Mouse</text>
<text x="-24" y="-22" class="key tl"><tspan style="font-size: 64%">&amp;dm DM_REC…</tspan></text>
</g>
<g transform="translate(210, 196)" class="key keypos-31">
<rect rx="6" ry="6" x="-28" y="-26" width="56" height="52" class="key"/>
<text x="0" y="1" class="key tap">Spc</text>
<text x="0" y="22" class="key hold">NUM</text>
<text x="-24" y="-22" class="key tl"><tspan style="font-size: 64%">&amp;dm DM_STP…</tspan></text>
</g>
<g transform="translate(270, 196)" class="key keypos-32">
<rect rx="6" ry="6" x="-28" y="-26" width="56" height="52" class="key"/>
<text x="0" y="1" class="key tap">Bspc</text>
<text x="0" y="22" class="key hold">FN</text>
<text x="0" y="-22" class="key shifted">Del</text>
<text x="-24" y="-22" class="key tl"><tspan style="font-size: 64%">&amp;dm DM_DEL…</tspan></text>
</g>
<g transform="translate(360, 196)" class="key keypos-33">
<rect rx="6" ry="6" x="-28" y="-26" width="56" height="52" class="key"/>
<text x="0" y="1" class="key tap">Magic</text>
<text x="0" y="22" class="key hold">Shift</text>
<text x="-24" y="-22" class="key tl"><tspan style="font-size: 64%">&amp;dm DM_STA…</tspan></text>
<text x="-24" y="22" class="key bl">Mouse</text>
</g>
<g transform="translate(420, 196)" class="key keypos-34">
<rect rx="6" ry="6" x="-28" y="-26" width="56" height="52" class="key"/>
<text x="0" y="1" class="key tap">Spc</text>
<text x="0" y="22" class="key hold">NUM</text>
<text x="-24" y="-22" class="key tl">Macro</text>
</g>
<g transform="translate(480, 196)" class="key keypos-35">
<rect rx="6" ry="6" x="-28" y="-26" width="56" height="52" class="key"/>
</g>
</g>
</g>
<g transform="translate(10, 234)" class="layer-Combos">
<g transform="translate(0, 10)">
<g transform="translate(30, 28)" class="key keypos-0">
<rect rx="6" ry="6" x="-28" y="-26" width="56" height="52" class="key"/>
</g>
<g transform="translate(90, 28)" class="key keypos-1">
<rect rx="6" ry="6" x="-28" y="-26" width="56" height="52" class="key"/>
</g>
<g transform="translate(150, 28)" class="key keypos-2">
<rect rx="6" ry="6" x="-28" y="-26" width="56" height="52" class="key"/>
</g>
<g transform="translate(210, 28)" class="key keypos-3">
<rect rx="6" ry="6" x="-28" y="-26" width="56" height="52" class="key"/>
</g>
<g transform="translate(270, 28)" class="key keypos-4">
<rect rx="6" ry="6" x="-28" y="-26" width="56" height="52" class="key"/>
</g>
<g transform="translate(360, 28)" class="key keypos-5">
<rect rx="6" ry="6" x="-28" y="-26" width="56" height="52" class="key"/>
</g>
<g transform="translate(420, 28)" class="key keypos-6">
<rect rx="6" ry="6" x="-28" y="-26" width="56" height="52" class="key"/>
</g>
<g transform="translate(480, 28)" class="key keypos-7">
<rect rx="6" ry="6" x="-28" y="-26" width="56" height="52" class="key"/>
</g>
<g transform="translate(540, 28)" class="key keypos-8">
<rect rx="6" ry="6" x="-28" y="-26" width="56" height="52" class="key"/>
</g>
<g transform="translate(600, 28)" class="key keypos-9">
<rect rx="6" ry="6" x="-28" y="-26" width="56" height="52" class="key"/>
</g>
<g transform="translate(30, 84)" class="key keypos-10">
<rect rx="6" ry="6" x="-28" y="-26" width="56" height="52" class="key"/>
</g>
<g transform="translate(90, 84)" class="key keypos-11">
<rect rx="6" ry="6" x="-28" y="-26" width="56" height="52" class="key"/>
</g>
<g transform="translate(150, 84)" class="key keypos-12">
<rect rx="6" ry="6" x="-28" y="-26" width="56" height="52" class="key"/>
</g>
<g transform="translate(210, 84)" class="key keypos-13">
<rect rx="6" ry="6" x="-28" y="-26" width="56" height="52" class="key"/>
</g>
<g transform="translate(270, 84)" class="key keypos-14">
<rect rx="6" ry="6" x="-28" y="-26" width="56" height="52" class="key"/>
</g>
<g transform="translate(360, 84)" class="key keypos-15">
<rect rx="6" ry="6" x="-28" y="-26" width="56" height="52" class="key"/>
</g>
<g transform="translate(420, 84)" class="key keypos-16">
<rect rx="6" ry="6" x="-28" y="-26" width="56" height="52" class="key"/>
</g>
<g transform="translate(480, 84)" class="key keypos-17">
<rect rx="6" ry="6" x="-28" y="-26" width="56" height="52" class="key"/>
</g>
<g transform="translate(540, 84)" class="key keypos-18">
<rect rx="6" ry="6" x="-28" y="-26" width="56" height="52" class="key"/>
</g>
<g transform="translate(600, 84)" class="key keypos-19">
<rect rx="6" ry="6" x="-28" y="-26" width="56" height="52" class="key"/>
</g>
<g transform="translate(30, 140)" class="key keypos-20">
<rect rx="6" ry="6" x="-28" y="-26" width="56" height="52" class="key"/>
</g>
<g transform="translate(90, 140)" class="key keypos-21">
<rect rx="6" ry="6" x="-28" y="-26" width="56" height="52" class="key"/>
</g>
<g transform="translate(150, 140)" class="key keypos-22">
<rect rx="6" ry="6" x="-28" y="-26" width="56" height="52" class="key"/>
</g>
<g transform="translate(210, 140)" class="key keypos-23">
<rect rx="6" ry="6" x="-28" y="-26" width="56" height="52" class="key"/>
</g>
<g transform="translate(270, 140)" class="key keypos-24">
<rect rx="6" ry="6" x="-28" y="-26" width="56" height="52" class="key"/>
</g>
<g transform="translate(360, 140)" class="key keypos-25">
<rect rx="6" ry="6" x="-28" y="-26" width="56" height="52" class="key"/>
</g>
<g transform="translate(420, 140)" class="key keypos-26">
<rect rx="6" ry="6" x="-28" y="-26" width="56" height="52" class="key"/>
</g>
<g transform="translate(480, 140)" class="key keypos-27">
<rect rx="6" ry="6" x="-28" y="-26" width="56" height="52" class="key"/>
</g>
<g transform="translate(540, 140)" class="key keypos-28">
<rect rx="6" ry="6" x="-28" y="-26" width="56" height="52" class="key"/>
</g>
<g transform="translate(600, 140)" class="key keypos-29">
<rect rx="6" ry="6" x="-28" y="-26" width="56" height="52" class="key"/>
</g>
<g transform="translate(150, 196)" class="key keypos-30">
<rect rx="6" ry="6" x="-28" y="-26" width="56" height="52" class="key"/>
</g>
<g transform="translate(210, 196)" class="key keypos-31">
<rect rx="6" ry="6" x="-28" y="-26" width="56" height="52" class="key"/>
</g>
<g transform="translate(270, 196)" class="key keypos-32">
<rect rx="6" ry="6" x="-28" y="-26" width="56" height="52" class="key"/>
</g>
<g transform="translate(360, 196)" class="key keypos-33">
<rect rx="6" ry="6" x="-28" y="-26" width="56" height="52" class="key"/>
</g>
<g transform="translate(420, 196)" class="key keypos-34">
<rect rx="6" ry="6" x="-28" y="-26" width="56" height="52" class="key"/>
</g>
<g transform="translate(480, 196)" class="key keypos-35">
<rect rx="6" ry="6" x="-28" y="-26" width="56" height="52" class="key"/>
</g>
<g class="combo combopos-0">
<rect rx="6" ry="6" x="46" y="71" width="28" height="26" class="combo"/>
<text x="60" y="84" class="combo tap">Esc</text>
</g>
<g class="combo combopos-1">
<rect rx="6" ry="6" x="346" y="43" width="28" height="26" class="combo"/>
<text x="360" y="56" class="combo tap">Mouse</text>
<text x="360" y="65" class="combo hold">toggle</text>
</g>
<g class="combo combopos-2">
<rect rx="6" ry="6" x="76" y="43" width="28" height="26" class="combo"/>
<text x="90" y="56" class="combo tap">Tab</text>
</g>
<g class="combo combopos-3">
<rect rx="6" ry="6" x="406" y="43" width="28" height="26" class="combo"/>
<text x="420" y="56" class="combo tap">&amp;leader</text>
</g>
<g class="combo combopos-4">
<path d="M150,177 h-54 a6.0,6.0 0 0 1 -6.0,-6.0 v-13" class="combo"/>
<path d="M150,177 h54 a6.0,6.0 0 0 0 6.0,-6.0 v-13" class="combo"/>
<rect rx="6" ry="6" x="136" y="164" width="28" height="26" class="combo"/>
<text x="150" y="177" class="combo tap">Cut</text>
</g>
<g class="combo combopos-5">
<rect rx="6" ry="6" x="106" y="127" width="28" height="26" class="combo"/>
<text x="120" y="140" class="combo tap">Copy</text>
</g>
<g class="combo combopos-6">
<rect rx="6" ry="6" x="166" y="127" width="28" height="26" class="combo"/>
<text x="180" y="140" class="combo tap">Paste</text>
</g>
<g class="combo combopos-7">
<rect rx="6" ry="6" x="406" y="99" width="28" height="26" class="combo"/>
<text x="420" y="112" class="combo tap">Bspc</text>
<text x="420" y="103" class="combo shifted">Del</text>
</g>
<g class="combo combopos-8">
<rect rx="6" ry="6" x="136" y="43" width="28" height="26" class="combo"/>
<text x="150" y="56" class="combo tap">Del</text>
</g>
<g class="combo combopos-9">
<rect rx="6" ry="6" x="166" y="71" width="28" height="26" class="combo"/>
<text x="180" y="84" class="combo tap">Tab</text>
</g>
<g class="combo combopos-10">
<rect rx="6" ry="6" x="106" y="71" width="28" height="26" class="combo"/>
<text x="120" y="84" class="combo tap">ENTER</text>
</g>
<g class="combo combopos-11">
<rect rx="6" ry="6" x="166" y="15" width="28" height="26" class="combo"/>
<text x="180" y="28" class="combo tap">MENU</text>
</g>
<g class="combo combopos-12">
<rect rx="6" ry="6" x="526" y="43" width="28" height="26" class="combo"/>
<text x="540" y="56" class="combo tap">
<tspan x="540" dy="-0.6em" style="font-size: 64%">&amp;as</tspan><tspan x="540" dy="1.2em" style="font-size: 64%">SINGLE_QUO…</tspan>
</text>
</g>
<g class="combo combopos-13">
<rect rx="6" ry="6" x="586" y="99" width="28" height="26" class="combo"/>
<text x="600" y="112" class="combo tap">
<tspan x="600" dy="-0.6em" style="font-size: 78%">&amp;as</tspan><tspan x="600" dy="1.2em" style="font-size: 78%">BACKSLASH</tspan>
</text>
</g>
<g class="combo combopos-14">
<rect rx="6" ry="6" x="466" y="43" width="28" height="26" class="combo"/>
<text x="480" y="56" class="combo tap">
<tspan x="480" dy="-0.6em">SCROLL</tspan><tspan x="480" dy="1.2em">UP</tspan>
</text>
</g>
<g class="combo combopos-15">
<rect rx="6" ry="6" x="526" y="43" width="28" height="26" class="combo"/>
<text x="540" y="56" class="combo tap">
<tspan x="540" dy="-0.6em">SCROLL</tspan><tspan x="540" dy="1.2em">DOWN</tspan>
</text>
</g>
<g class="combo combopos-16">
<rect rx="6" ry="6" x="256" y="43" width="28" height="26" class="combo"/>
<text x="270" y="56" class="combo tap">Macro</text>
<text x="270" y="65" class="combo hold">Macro</text>
</g>
<g class="combo combopos-17">
<rect rx="6" ry="6" x="496" y="15" width="28" height="26" class="combo"/>
<text x="510" y="28" class="combo tap">;</text>
</g>
</g>
</g>
<text x="640.0" y="473.0" class="footer">urob/zmk-config</text></svg>
